<svg width="152" height="130" viewBox="0 0 152 130" fill="none" xmlns="http://www.w3.org/2000/svg">
<path d="M57.158 128L33.658 63C28.658 54 18.158 35.8 16.158 35C14.158 34.2 32 11.8333 41 1.5L63.658 71L65.658 75.5L87.158 109L57.158 128Z" fill="#4F2FD1" stroke="#5447E0"/>
<path d="M26.5 119L40.5 1H35.5H31.5L28 1.5L25 2.5L22.5 4L20.5 5.5L18.5 7.5L17 9L15 11.5L13.5 13.5L12 16L10.5 19L0 110V119L1 123L4 126.5L7 129L11 130H17L21 128L24.5 124.5L26 122L26.5 119Z" fill="url(#paint0_linear_288_23)"/>
<path d="M91.5 80.5L117.5 129.5L135.5 126L122.5 88.5L95.5 39L74 53.5L91.5 80.5Z" fill="#4F2FD1"/>
<path d="M58 130L57 128.5L64 64.5L64.5 62L65 59L65.5 57.5L66 56L67 53.5L67.5 52.5L68 51L69 49.5L70.5 48L71.5 47L72.5 45.5L73.5 44.5L74.5 43.5L76 42.5L78 41L79.5 40L83.5 38.5L86.5 37.5H89.5L96 38.5L91 84L89.5 103L89 105.5L88.5 107L88 108L87.5 109L87 110L86.5 111L86 112.5L85.5 114L85 115L84 116.5L83.5 118L82.5 119L81.5 120L80.5 121L79.5 122L78 123L77 124L76 125L75 126L74 126.5L72.5 127.5L70.5 128.5L69 129.5L66 130H64.5H63.5H62H60.5H58Z" fill="url(#paint1_linear_288_23)"/>
<path d="M123 129.5H120.5H119.252L123 83L123.5 79.5C123.5 79.1 124 76.6667 124 76.5C124.333 75.8333 125.6 72.9 126 72.5C126 72.1 127 71 127.5 70.5L129 69L131.5 67.5L133.5 66.5L137 66H138L143 67L145.5 68.5C145.833 68.8333 147.6 70.1 148 70.5C148.167 70.8333 149.1 72.1 149.5 72.5C149.5 72.9 150.5 74.5 150.5 74.5L151 76L151.5 77.5L150 104L149.5 107.5L149 109.5L148 111.5L147 113.5L145.5 116L144.5 118L142.5 120L141 121.5L139 123.5L137.5 124.5L135 126L132.5 127.5C132.5 127.5 129.506 129.211 129.056 129.072C129.056 129.072 129.056 129.072 129.056 129.072L126 129.5H123Z" fill="url(#paint2_linear_288_23)"/>
<defs>
<linearGradient id="paint0_linear_288_23" x1="20.25" y1="1" x2="20.25" y2="130" gradientUnits="userSpaceOnUse">
<stop stop-color="#0BBCD7"/>
<stop offset="1" stop-color="#F828FF"/>
</linearGradient>
<linearGradient id="paint1_linear_288_23" x1="76.5" y1="37.5" x2="76.5" y2="130" gradientUnits="userSpaceOnUse">
<stop stop-color="#0BBCD7"/>
<stop offset="1" stop-color="#B93FD7"/>
</linearGradient>
<linearGradient id="paint2_linear_288_23" x1="135.25" y1="66" x2="135.25" y2="129.5" gradientUnits="userSpaceOnUse">
<stop stop-color="#0D768B"/>
<stop offset="1" stop-color="#49E0FE"/>
</linearGradient>
</defs>
</svg>
