<svg width="223" height="203" viewBox="0 0 223 203" fill="none" xmlns="http://www.w3.org/2000/svg">
<path d="M92.158 128L68.658 63C63.658 54 53.158 35.8 51.158 35C49.158 34.2 67 11.8333 76 1.5L98.658 71L100.658 75.5L122.158 109L92.158 128Z" fill="#4F2FD1" stroke="#5447E0"/>
<path d="M61.5 119L75.5 1H70.5H66.5L63 1.5L60 2.5L57.5 4L55.5 5.5L53.5 7.5L52 9L50 11.5L48.5 13.5L47 16L45.5 19L35 110V119L36 123L39 126.5L42 129L46 130H52L56 128L59.5 124.5L61 122L61.5 119Z" fill="url(#paint0_linear_288_31)"/>
<path d="M126.5 80.5L152.5 129.5L170.5 126L157.5 88.5L130.5 39L109 53.5L126.5 80.5Z" fill="#4F2FD1"/>
<path d="M93 130L92 128.5L99 64.5L99.5 62L100 59L100.5 57.5L101 56L102 53.5L102.5 52.5L103 51L104 49.5L105.5 48L106.5 47L107.5 45.5L108.5 44.5L109.5 43.5L111 42.5L113 41L114.5 40L118.5 38.5L121.5 37.5H124.5L131 38.5L126 84L124.5 103L124 105.5L123.5 107L123 108L122.5 109L122 110L121.5 111L121 112.5L120.5 114L120 115L119 116.5L118.5 118L117.5 119L116.5 120L115.5 121L114.5 122L113 123L112 124L111 125L110 126L109 126.5L107.5 127.5L105.5 128.5L104 129.5L101 130H99.5H98.5H97H95.5H93Z" fill="url(#paint1_linear_288_31)"/>
<path d="M158 129.5H155.5H154.252L158 83L158.5 79.5C158.5 79.1 159 76.6667 159 76.5C159.333 75.8333 160.6 72.9 161 72.5C161 72.1 162 71 162.5 70.5L164 69L166.5 67.5L168.5 66.5L172 66H173L178 67L180.5 68.5C180.833 68.8333 182.6 70.1 183 70.5C183.167 70.8333 184.1 72.1 184.5 72.5C184.5 72.9 185.5 74.5 185.5 74.5L186 76L186.5 77.5L185 104L184.5 107.5L184 109.5L183 111.5L182 113.5L180.5 116L179.5 118L177.5 120L176 121.5L174 123.5L172.5 124.5L170 126L167.5 127.5C167.5 127.5 164.506 129.211 164.056 129.072C164.056 129.072 164.056 129.072 164.056 129.072L161 129.5H158Z" fill="url(#paint2_linear_288_31)"/>
<path d="M25.632 135.16V142.648H12.096V148.6H22.08V155.752H12.096V169H2.688V135.16H25.632ZM39.0023 135.16V169H29.5943V135.16H39.0023ZM75.7039 169H66.2959L53.7679 150.088V169H44.3599V135.16H53.7679L66.2959 154.312V135.16H75.7039V169ZM104.007 135.16V142.648H90.471V148.6H100.455V155.752H90.471V169H81.063V135.16H104.007ZM117.377 161.8H127.889V169H107.969V135.16H117.377V161.8ZM147.771 169.336C144.603 169.336 141.691 168.6 139.035 167.128C136.379 165.624 134.267 163.56 132.699 160.936C131.163 158.28 130.395 155.288 130.395 151.96C130.395 148.632 131.163 145.656 132.699 143.032C134.267 140.376 136.379 138.312 139.035 136.84C141.691 135.368 144.603 134.632 147.771 134.632C150.971 134.632 153.883 135.368 156.507 136.84C159.163 138.312 161.259 140.376 162.795 143.032C164.331 145.656 165.099 148.632 165.099 151.96C165.099 155.288 164.331 158.28 162.795 160.936C161.259 163.56 159.163 165.624 156.507 167.128C153.851 168.6 150.939 169.336 147.771 169.336ZM147.771 160.6C150.171 160.6 152.059 159.816 153.435 158.248C154.843 156.68 155.547 154.584 155.547 151.96C155.547 149.272 154.843 147.16 153.435 145.624C152.059 144.056 150.171 143.272 147.771 143.272C145.339 143.272 143.435 144.056 142.059 145.624C140.683 147.16 139.995 149.272 139.995 151.96C139.995 154.616 140.683 156.728 142.059 158.296C143.435 159.832 145.339 160.6 147.771 160.6ZM216.993 135.16L208.689 169H197.121L192.465 148.264L187.713 169H176.145L167.937 135.16H178.113L182.049 158.296L187.377 135.16H197.697L202.881 158.104L206.817 135.16H216.993Z" fill="url(#paint3_linear_288_31)"/>
<path d="M30.82 182.008H27.004L26.272 184H25.384L28.444 175.72H29.392L32.44 184H31.552L30.82 182.008ZM30.568 181.312L28.912 176.776L27.256 181.312H30.568ZM36.8601 177.328C37.6441 177.328 38.2841 177.572 38.7801 178.06C39.2761 178.54 39.5241 179.24 39.5241 180.16V184H38.6961V180.256C38.6961 179.544 38.5161 179 38.1561 178.624C37.8041 178.248 37.3201 178.06 36.7041 178.06C36.0721 178.06 35.5681 178.26 35.1921 178.66C34.8161 179.06 34.6281 179.648 34.6281 180.424V184H33.7881V177.448H34.6281V178.564C34.8361 178.164 35.1361 177.86 35.5281 177.652C35.9201 177.436 36.3641 177.328 36.8601 177.328ZM46.7819 177.448L42.8939 187.084H42.0179L43.2899 183.964L40.6019 177.448H41.5259L43.7579 183.04L45.9179 177.448H46.7819ZM52.3059 178.156V182.224C52.3059 182.624 52.3819 182.9 52.5339 183.052C52.6859 183.204 52.9539 183.28 53.3379 183.28H54.1059V184H53.2059C52.6139 184 52.1739 183.864 51.8859 183.592C51.5979 183.312 51.4539 182.856 51.4539 182.224V178.156H50.5419V177.448H51.4539V175.804H52.3059V177.448H54.1059V178.156H52.3059ZM56.3313 178.612C56.5153 178.204 56.7953 177.888 57.1713 177.664C57.5553 177.44 58.0233 177.328 58.5753 177.328V178.204H58.3473C57.7393 178.204 57.2513 178.368 56.8833 178.696C56.5153 179.024 56.3313 179.572 56.3313 180.34V184H55.4913V177.448H56.3313V178.612ZM59.4549 180.712C59.4549 180.04 59.5869 179.452 59.8509 178.948C60.1229 178.436 60.4949 178.044 60.9669 177.772C61.4469 177.492 61.9869 177.352 62.5869 177.352C63.2109 177.352 63.7469 177.496 64.1949 177.784C64.6509 178.072 64.9789 178.44 65.1789 178.888V177.448H66.0189V184H65.1789V182.548C64.9709 182.996 64.6389 183.368 64.1829 183.664C63.7349 183.952 63.1989 184.096 62.5749 184.096C61.9829 184.096 61.4469 183.956 60.9669 183.676C60.4949 183.396 60.1229 183 59.8509 182.488C59.5869 181.976 59.4549 181.384 59.4549 180.712ZM65.1789 180.724C65.1789 180.196 65.0709 179.732 64.8549 179.332C64.6389 178.932 64.3429 178.624 63.9669 178.408C63.5989 178.192 63.1909 178.084 62.7429 178.084C62.2789 178.084 61.8629 178.188 61.4949 178.396C61.1269 178.604 60.8349 178.908 60.6189 179.308C60.4109 179.7 60.3069 180.168 60.3069 180.712C60.3069 181.248 60.4109 181.72 60.6189 182.128C60.8349 182.528 61.1269 182.836 61.4949 183.052C61.8629 183.26 62.2789 183.364 62.7429 183.364C63.1909 183.364 63.5989 183.256 63.9669 183.04C64.3429 182.824 64.6389 182.516 64.8549 182.116C65.0709 181.716 65.1789 181.252 65.1789 180.724ZM71.0086 177.328C71.7926 177.328 72.4326 177.572 72.9286 178.06C73.4246 178.54 73.6726 179.24 73.6726 180.16V184H72.8446V180.256C72.8446 179.544 72.6646 179 72.3046 178.624C71.9526 178.248 71.4686 178.06 70.8526 178.06C70.2206 178.06 69.7166 178.26 69.3406 178.66C68.9646 179.06 68.7766 179.648 68.7766 180.424V184H67.9366V177.448H68.7766V178.564C68.9846 178.164 69.2846 177.86 69.6766 177.652C70.0686 177.436 70.5126 177.328 71.0086 177.328ZM77.7863 184.096C77.0343 184.096 76.4183 183.924 75.9383 183.58C75.4663 183.228 75.2023 182.752 75.1463 182.152H76.0103C76.0503 182.52 76.2223 182.82 76.5263 183.052C76.8383 183.276 77.2543 183.388 77.7743 183.388C78.2303 183.388 78.5863 183.28 78.8423 183.064C79.1063 182.848 79.2383 182.58 79.2383 182.26C79.2383 182.036 79.1663 181.852 79.0223 181.708C78.8783 181.564 78.6943 181.452 78.4703 181.372C78.2543 181.284 77.9583 181.192 77.5823 181.096C77.0943 180.968 76.6983 180.84 76.3943 180.712C76.0903 180.584 75.8303 180.396 75.6143 180.148C75.4063 179.892 75.3023 179.552 75.3023 179.128C75.3023 178.808 75.3983 178.512 75.5903 178.24C75.7823 177.968 76.0543 177.752 76.4063 177.592C76.7583 177.432 77.1583 177.352 77.6063 177.352C78.3103 177.352 78.8783 177.532 79.3103 177.892C79.7423 178.244 79.9743 178.732 80.0063 179.356H79.1663C79.1423 178.972 78.9903 178.664 78.7103 178.432C78.4383 178.192 78.0623 178.072 77.5823 178.072C77.1583 178.072 76.8143 178.172 76.5503 178.372C76.2863 178.572 76.1543 178.82 76.1543 179.116C76.1543 179.372 76.2303 179.584 76.3823 179.752C76.5423 179.912 76.7383 180.04 76.9703 180.136C77.2023 180.224 77.5143 180.324 77.9063 180.436C78.3783 180.564 78.7543 180.688 79.0343 180.808C79.3143 180.928 79.5543 181.104 79.7543 181.336C79.9543 181.568 80.0583 181.876 80.0663 182.26C80.0663 182.612 79.9703 182.928 79.7783 183.208C79.5863 183.48 79.3183 183.696 78.9743 183.856C78.6303 184.016 78.2343 184.096 77.7863 184.096ZM81.2635 180.712C81.2635 180.04 81.3955 179.452 81.6595 178.948C81.9315 178.436 82.3035 178.044 82.7755 177.772C83.2555 177.492 83.7955 177.352 84.3955 177.352C85.0195 177.352 85.5555 177.496 86.0035 177.784C86.4595 178.072 86.7875 178.44 86.9875 178.888V177.448H87.8275V184H86.9875V182.548C86.7795 182.996 86.4475 183.368 85.9915 183.664C85.5435 183.952 85.0075 184.096 84.3835 184.096C83.7915 184.096 83.2555 183.956 82.7755 183.676C82.3035 183.396 81.9315 183 81.6595 182.488C81.3955 181.976 81.2635 181.384 81.2635 180.712ZM86.9875 180.724C86.9875 180.196 86.8795 179.732 86.6635 179.332C86.4475 178.932 86.1515 178.624 85.7755 178.408C85.4075 178.192 84.9995 178.084 84.5515 178.084C84.0875 178.084 83.6715 178.188 83.3035 178.396C82.9355 178.604 82.6435 178.908 82.4275 179.308C82.2195 179.7 82.1155 180.168 82.1155 180.712C82.1155 181.248 82.2195 181.72 82.4275 182.128C82.6435 182.528 82.9355 182.836 83.3035 183.052C83.6715 183.26 84.0875 183.364 84.5515 183.364C84.9995 183.364 85.4075 183.256 85.7755 183.04C86.1515 182.824 86.4475 182.516 86.6635 182.116C86.8795 181.716 86.9875 181.252 86.9875 180.724ZM89.3612 180.724C89.3612 180.044 89.4972 179.452 89.7692 178.948C90.0412 178.436 90.4172 178.044 90.8972 177.772C91.3772 177.492 91.9252 177.352 92.5412 177.352C93.3492 177.352 94.0132 177.552 94.5332 177.952C95.0612 178.352 95.4012 178.896 95.5532 179.584H94.6532C94.5412 179.112 94.2972 178.744 93.9212 178.48C93.5532 178.208 93.0932 178.072 92.5412 178.072C92.1012 178.072 91.7052 178.172 91.3532 178.372C91.0012 178.572 90.7212 178.872 90.5132 179.272C90.3132 179.664 90.2132 180.148 90.2132 180.724C90.2132 181.3 90.3132 181.788 90.5132 182.188C90.7212 182.588 91.0012 182.888 91.3532 183.088C91.7052 183.288 92.1012 183.388 92.5412 183.388C93.0932 183.388 93.5532 183.256 93.9212 182.992C94.2972 182.72 94.5412 182.344 94.6532 181.864H95.5532C95.4012 182.536 95.0612 183.076 94.5332 183.484C94.0052 183.892 93.3412 184.096 92.5412 184.096C91.9252 184.096 91.3772 183.96 90.8972 183.688C90.4172 183.408 90.0412 183.016 89.7692 182.512C89.4972 182 89.3612 181.404 89.3612 180.724ZM98.1965 178.156V182.224C98.1965 182.624 98.2725 182.9 98.4245 183.052C98.5765 183.204 98.8445 183.28 99.2285 183.28H99.9965V184H99.0965C98.5045 184 98.0645 183.864 97.7765 183.592C97.4885 183.312 97.3445 182.856 97.3445 182.224V178.156H96.4325V177.448H97.3445V175.804H98.1965V177.448H99.9965V178.156H98.1965ZM101.802 176.212C101.634 176.212 101.49 176.152 101.37 176.032C101.25 175.912 101.19 175.764 101.19 175.588C101.19 175.412 101.25 175.268 101.37 175.156C101.49 175.036 101.634 174.976 101.802 174.976C101.97 174.976 102.114 175.036 102.234 175.156C102.354 175.268 102.414 175.412 102.414 175.588C102.414 175.764 102.354 175.912 102.234 176.032C102.114 176.152 101.97 176.212 101.802 176.212ZM102.222 177.448V184H101.382V177.448H102.222ZM106.992 184.096C106.376 184.096 105.82 183.96 105.324 183.688C104.836 183.408 104.448 183.016 104.16 182.512C103.88 182 103.74 181.404 103.74 180.724C103.74 180.044 103.884 179.452 104.172 178.948C104.46 178.436 104.852 178.044 105.348 177.772C105.844 177.492 106.4 177.352 107.016 177.352C107.632 177.352 108.188 177.492 108.684 177.772C109.188 178.044 109.58 178.436 109.86 178.948C110.148 179.452 110.292 180.044 110.292 180.724C110.292 181.396 110.148 181.988 109.86 182.5C109.572 183.012 109.176 183.408 108.672 183.688C108.168 183.96 107.608 184.096 106.992 184.096ZM106.992 183.364C107.424 183.364 107.824 183.268 108.192 183.076C108.56 182.876 108.856 182.58 109.08 182.188C109.312 181.788 109.428 181.3 109.428 180.724C109.428 180.148 109.316 179.664 109.092 179.272C108.868 178.872 108.572 178.576 108.204 178.384C107.836 178.184 107.436 178.084 107.004 178.084C106.572 178.084 106.172 178.184 105.804 178.384C105.436 178.576 105.14 178.872 104.916 179.272C104.7 179.664 104.592 180.148 104.592 180.724C104.592 181.3 104.7 181.788 104.916 182.188C105.14 182.58 105.432 182.876 105.792 183.076C106.16 183.268 106.56 183.364 106.992 183.364ZM114.895 177.328C115.679 177.328 116.319 177.572 116.815 178.06C117.311 178.54 117.559 179.24 117.559 180.16V184H116.731V180.256C116.731 179.544 116.551 179 116.191 178.624C115.839 178.248 115.355 178.06 114.739 178.06C114.107 178.06 113.603 178.26 113.227 178.66C112.851 179.06 112.663 179.648 112.663 180.424V184H111.823V177.448H112.663V178.564C112.871 178.164 113.171 177.86 113.563 177.652C113.955 177.436 114.399 177.328 114.895 177.328ZM123.13 176.212C122.962 176.212 122.818 176.152 122.698 176.032C122.578 175.912 122.518 175.764 122.518 175.588C122.518 175.412 122.578 175.268 122.698 175.156C122.818 175.036 122.962 174.976 123.13 174.976C123.298 174.976 123.442 175.036 123.562 175.156C123.682 175.268 123.742 175.412 123.742 175.588C123.742 175.764 123.682 175.912 123.562 176.032C123.442 176.152 123.298 176.212 123.13 176.212ZM123.55 177.448V184H122.71V177.448H123.55ZM128.524 177.328C129.308 177.328 129.948 177.572 130.444 178.06C130.94 178.54 131.188 179.24 131.188 180.16V184H130.36V180.256C130.36 179.544 130.18 179 129.82 178.624C129.468 178.248 128.984 178.06 128.368 178.06C127.736 178.06 127.232 178.26 126.856 178.66C126.48 179.06 126.292 179.648 126.292 180.424V184H125.452V177.448H126.292V178.564C126.5 178.164 126.8 177.86 127.192 177.652C127.584 177.436 128.028 177.328 128.524 177.328ZM135.955 180.712C135.955 180.04 136.087 179.452 136.351 178.948C136.623 178.436 136.995 178.044 137.467 177.772C137.947 177.492 138.487 177.352 139.087 177.352C139.711 177.352 140.247 177.496 140.695 177.784C141.151 178.072 141.479 178.44 141.679 178.888V177.448H142.519V184H141.679V182.548C141.471 182.996 141.139 183.368 140.683 183.664C140.235 183.952 139.699 184.096 139.075 184.096C138.483 184.096 137.947 183.956 137.467 183.676C136.995 183.396 136.623 183 136.351 182.488C136.087 181.976 135.955 181.384 135.955 180.712ZM141.679 180.724C141.679 180.196 141.571 179.732 141.355 179.332C141.139 178.932 140.843 178.624 140.467 178.408C140.099 178.192 139.691 178.084 139.243 178.084C138.779 178.084 138.363 178.188 137.995 178.396C137.627 178.604 137.335 178.908 137.119 179.308C136.911 179.7 136.807 180.168 136.807 180.712C136.807 181.248 136.911 181.72 137.119 182.128C137.335 182.528 137.627 182.836 137.995 183.052C138.363 183.26 138.779 183.364 139.243 183.364C139.691 183.364 140.099 183.256 140.467 183.04C140.843 182.824 141.139 182.516 141.355 182.116C141.571 181.716 141.679 181.252 141.679 180.724ZM155.53 177.328C156.298 177.328 156.922 177.572 157.402 178.06C157.89 178.54 158.134 179.24 158.134 180.16V184H157.306V180.256C157.306 179.544 157.134 179 156.79 178.624C156.446 178.248 155.978 178.06 155.386 178.06C154.77 178.06 154.278 178.264 153.91 178.672C153.542 179.08 153.358 179.672 153.358 180.448V184H152.53V180.256C152.53 179.544 152.358 179 152.014 178.624C151.67 178.248 151.198 178.06 150.598 178.06C149.982 178.06 149.49 178.264 149.122 178.672C148.754 179.08 148.57 179.672 148.57 180.448V184H147.73V177.448H148.57V178.576C148.778 178.168 149.074 177.86 149.458 177.652C149.842 177.436 150.27 177.328 150.742 177.328C151.31 177.328 151.806 177.464 152.23 177.736C152.662 178.008 152.974 178.408 153.166 178.936C153.342 178.416 153.642 178.02 154.066 177.748C154.498 177.468 154.986 177.328 155.53 177.328ZM160.419 176.212C160.251 176.212 160.107 176.152 159.987 176.032C159.867 175.912 159.807 175.764 159.807 175.588C159.807 175.412 159.867 175.268 159.987 175.156C160.107 175.036 160.251 174.976 160.419 174.976C160.587 174.976 160.731 175.036 160.851 175.156C160.971 175.268 161.031 175.412 161.031 175.588C161.031 175.764 160.971 175.912 160.851 176.032C160.731 176.152 160.587 176.212 160.419 176.212ZM160.839 177.448V184H159.999V177.448H160.839ZM165.813 177.328C166.597 177.328 167.237 177.572 167.733 178.06C168.229 178.54 168.477 179.24 168.477 180.16V184H167.649V180.256C167.649 179.544 167.469 179 167.109 178.624C166.757 178.248 166.273 178.06 165.657 178.06C165.025 178.06 164.521 178.26 164.145 178.66C163.769 179.06 163.581 179.648 163.581 180.424V184H162.741V177.448H163.581V178.564C163.789 178.164 164.089 177.86 164.481 177.652C164.873 177.436 165.317 177.328 165.813 177.328ZM176.011 177.448V184H175.171V182.848C174.979 183.256 174.683 183.568 174.283 183.784C173.883 184 173.435 184.108 172.939 184.108C172.155 184.108 171.515 183.868 171.019 183.388C170.523 182.9 170.275 182.196 170.275 181.276V177.448H171.103V181.18C171.103 181.892 171.279 182.436 171.631 182.812C171.991 183.188 172.479 183.376 173.095 183.376C173.727 183.376 174.231 183.176 174.607 182.776C174.983 182.376 175.171 181.788 175.171 181.012V177.448H176.011ZM179.021 178.156V182.224C179.021 182.624 179.097 182.9 179.249 183.052C179.401 183.204 179.669 183.28 180.053 183.28H180.821V184H179.921C179.329 184 178.889 183.864 178.601 183.592C178.313 183.312 178.169 182.856 178.169 182.224V178.156H177.257V177.448H178.169V175.804H179.021V177.448H180.821V178.156H179.021ZM188.134 180.388C188.134 180.676 188.126 180.896 188.11 181.048H182.674C182.698 181.544 182.818 181.968 183.034 182.32C183.25 182.672 183.534 182.94 183.886 183.124C184.238 183.3 184.622 183.388 185.038 183.388C185.582 183.388 186.038 183.256 186.406 182.992C186.782 182.728 187.03 182.372 187.15 181.924H188.038C187.878 182.564 187.534 183.088 187.006 183.496C186.486 183.896 185.83 184.096 185.038 184.096C184.422 184.096 183.87 183.96 183.382 183.688C182.894 183.408 182.51 183.016 182.23 182.512C181.958 182 181.822 181.404 181.822 180.724C181.822 180.044 181.958 179.448 182.23 178.936C182.502 178.424 182.882 178.032 183.37 177.76C183.858 177.488 184.414 177.352 185.038 177.352C185.662 177.352 186.206 177.488 186.67 177.76C187.142 178.032 187.502 178.4 187.75 178.864C188.006 179.32 188.134 179.828 188.134 180.388ZM187.282 180.364C187.29 179.876 187.19 179.46 186.982 179.116C186.782 178.772 186.506 178.512 186.154 178.336C185.802 178.16 185.418 178.072 185.002 178.072C184.378 178.072 183.846 178.272 183.406 178.672C182.966 179.072 182.722 179.636 182.674 180.364H187.282Z" fill="#B93FD7"/>
<defs>
<linearGradient id="paint0_linear_288_31" x1="55.25" y1="1" x2="55.25" y2="130" gradientUnits="userSpaceOnUse">
<stop stop-color="#0BBCD7"/>
<stop offset="1" stop-color="#F828FF"/>
</linearGradient>
<linearGradient id="paint1_linear_288_31" x1="111.5" y1="37.5" x2="111.5" y2="130" gradientUnits="userSpaceOnUse">
<stop stop-color="#0BBCD7"/>
<stop offset="1" stop-color="#B93FD7"/>
</linearGradient>
<linearGradient id="paint2_linear_288_31" x1="170.25" y1="66" x2="170.25" y2="129.5" gradientUnits="userSpaceOnUse">
<stop stop-color="#0D768B"/>
<stop offset="1" stop-color="#49E0FE"/>
</linearGradient>
<linearGradient id="paint3_linear_288_31" x1="219.37" y1="137" x2="2.96877" y2="171.366" gradientUnits="userSpaceOnUse">
<stop stop-color="#2A629A"/>
<stop offset="1" stop-color="#D75DDB"/>
</linearGradient>
</defs>
</svg>
